Genre:Comedy | Drama
Language:English  http://www.imdb.com/title/tt1339404/
Source:DVD

General
Complete name .Want.Your.Girl.2009.DvDRip.H264.Feel-Free
Format : MPEG-4
Format profile : Base Media
Codec ID : isom
File size : 898 MiB
Duration : 1h 16mn
Overall bit rate : 1 640 Kbps
Video #2
Codec ID : avc1
Codec ID/Info : Advanced Video Coding
Duration : 1h 16mn
Bit rate mode : Variable
Bit rate : 1 563 Kbps
Width : 720 pixels
Height : 304 pixels
Display aspect ratio : 2.35:1
Frame rate mode : Constant
Frame rate : 23.976 fps
Original frame rate : 23.000 fps
Resolution : 24 bits
Colorimetry : 4:2:0
Scan type : Progressive
Bits/(Pixel*Frame) : 0.298
Stream size : 856 MiB (95%)
Audio #1
ID : 1
Format : AAC
Format/Info : Advanced Audio Codec
Format version : Version 4
Format profile : LC
Format settings, SBR : No
Codec ID : 40
Duration : 1h 16mn
Bit rate mode : Constant
Bit rate : 160 Kbps
Channel(s) : 6 channels
Channel positions : Front: L C R, Rear: L R, LFE
Sampling rate : 48.0 KHz
Resolution : 16 bits
Stream size : 38.3 MiB (4%)


Plot:
A loving couple Laura and John get lost in the middle of nowhere during a thunderstorm, riding a scooter to a birthday party


